<svg width="250" height="188" viewBox="0 0 250 188" fill="none" xmlns="http://www.w3.org/2000/svg">
<path d="M54.0781 127.842C57.5184 65.4524 85.1321 56.5343 66.7334 125.1L54.0781 127.842Z" fill="#52A8C7"/>
<mask id="mask0_16459_9597" style="mask-type:luminance" maskUnits="userSpaceOnUse" x="54" y="77" width="20" height="51">
<path d="M54.0781 127.842C57.5184 65.4524 85.1321 56.5343 66.7334 125.1L54.0781 127.842Z" fill="white"/>
</mask>
<g mask="url(#mask0_16459_9597)">
<path d="M75.9117 77.7538C73.0343 83.6044 62.8176 129.779 62.8176 129.779M70.5673 74.9688C66.1053 86.6708 61.3206 128.378 61.3206 128.378M66.3395 78.5196C64.4027 86.7684 58.7539 128.158 58.7539 128.158" stroke="#007FAD" stroke-width="6.746" stroke-linecap="round" stroke-linejoin="round"/>
<path d="M59.5454 81.1562C61.0178 90.7099 55.9893 131.068 55.9893 131.068L59.5454 81.1562Z" fill="#32A2CA"/>
<path d="M59.5454 81.1562C61.0178 90.7099 55.9893 131.068 55.9893 131.068" stroke="#000102" stroke-miterlimit="10"/>
<path d="M55.7334 96.1367C61.4965 84.837 64.4666 102.992 63.8355 111.646C63.2445 119.752 71.3742 98.8293 74.6762 104.327C77.8458 109.604 60.8783 120.704 60.8783 120.704L56.9179 118.037" fill="#007FAD"/>
</g>
<path d="M54.0781 127.842C57.5184 65.4524 85.1321 56.5343 66.7334 125.1L54.0781 127.842Z" stroke="#000102" stroke-miterlimit="10"/>
<path d="M51.9109 129.141C22.0397 35.1629 48.7169 5.35316 63.9466 121.266L51.9109 129.141Z" fill="#32A2CA"/>
<mask id="mask1_16459_9597" style="mask-type:luminance" maskUnits="userSpaceOnUse" x="38" y="45" width="26" height="85">
<path d="M51.9109 129.141C22.0397 35.1629 48.7169 5.35316 63.9466 121.266L51.9109 129.141Z" fill="white"/>
</mask>
<g mask="url(#mask1_16459_9597)">
<path d="M49.7972 46.38C49.6964 57.1578 62.0128 128.957 62.0128 128.957M42.1324 44.3906C43.5739 65.077 59.754 127.538 59.754 127.538M39.3456 52.1115C41.74 65.9704 56.9431 128.067 56.9431 128.067M33.292 59.3585C40.1625 73.4703 55.4623 132.853 55.4623 132.853" stroke="#1DA5D5" stroke-width="6.746" stroke-linecap="round" stroke-linejoin="round"/>
<path d="M45.6504 103.984C46.047 90.6877 54 106.646 56.4666 116.414C58.7552 125.478 64.5379 100.766 63.1259 116.31C61.8693 130.143 55.2069 125.547 55.2069 125.547L48.3924 114.328" fill="#1DA5D5"/>
</g>
<path d="M51.9109 129.141C22.0397 35.1629 48.7169 5.35316 63.9466 121.266L51.9109 129.141Z" stroke="#000102" stroke-miterlimit="10"/>
<path d="M51.9996 132.546C26.1424 91.2364 38.0362 73.8266 58.8196 125.712L51.9996 132.546Z" fill="#52A8C7"/>
<mask id="mask2_16459_9597" style="mask-type:luminance" maskUnits="userSpaceOnUse" x="37" y="93" width="22" height="40">
<path d="M51.9996 132.546C26.1424 91.2364 38.0362 73.8266 58.8196 125.712L51.9996 132.546Z" fill="white"/>
</mask>
<g mask="url(#mask2_16459_9597)">
<path d="M42.0938 90.8359C43.0262 95.7367 58.5713 130.511 58.5713 130.511M37.6659 91.4398C40.2602 100.612 56.9037 130.122 56.9037 130.122M36.7616 95.4344C39.2925 101.387 55.1364 130.967 55.1364 130.967M33.9746 99.91C39.0515 105.276 54.7723 134.048 54.7723 134.048" stroke="#007FAD" stroke-width="6.746" stroke-linecap="round" stroke-linejoin="round"/>
<path d="M55.3143 125.913C50.7791 126.871 58.5442 119.133 58.5442 119.133L59.889 121.242" fill="#007FAD"/>
</g>
<path d="M51.9996 132.546C26.1424 91.2364 38.0362 73.8266 58.8196 125.712L51.9996 132.546Z" stroke="#000102" stroke-miterlimit="10"/>
<path d="M52.1992 129.712C79.3291 90.1976 96.2686 97.8903 61.0444 133.446L52.1992 129.712Z" fill="#32A2CA"/>
<mask id="mask3_16459_9597" style="mask-type:luminance" maskUnits="userSpaceOnUse" x="52" y="103" width="29" height="31">
<path d="M52.1992 129.712C79.3291 90.1976 96.2686 97.8903 61.0444 133.446L52.1992 129.712Z" fill="white"/>
</mask>
<g mask="url(#mask3_16459_9597)">
<path d="M84.3734 106.494C80.7535 108.833 56.7431 134.999 56.7431 134.999M82.6399 102.309C75.9269 107.579 56.429 133.349 56.429 133.349M79.1206 102.54C74.9684 106.846 54.9561 132.048 54.9561 132.048M74.476 100.969C71.589 107.785 51.9883 132.869 51.9883 132.869" stroke="#1DA5D5" stroke-width="6.746" stroke-linecap="round" stroke-linejoin="round"/>
<path d="M69.8491 125.601C52.1992 129.71 78.0547 114.422 78.0547 114.422L75.3415 124.225" fill="#1DA5D5"/>
</g>
<path d="M52.1992 129.712C79.3291 90.1976 96.2686 97.8903 61.0444 133.446L52.1992 129.712Z" stroke="#000102" stroke-miterlimit="10"/>
<path d="M73.1445 111.539C71.8446 112.503 70.4671 113.358 69.0263 114.095M59.2393 123.808L61.8573 122.687" stroke="#1DA5D5" stroke-width="6.746" stroke-linecap="round" stroke-linejoin="round"/>
<path d="M69.8299 128.273H45.9199C50.4299 146.576 16.8989 150.183 38.6646 171.825H77.0852C98.8509 150.183 65.3199 146.576 69.8299 128.273Z" fill="#2AC6FE"/>
<mask id="mask4_16459_9597" style="mask-type:luminance" maskUnits="userSpaceOnUse" x="31" y="128" width="54" height="44">
<path d="M69.8299 128.273H45.9199C50.4299 146.576 16.8989 150.183 38.6646 171.825H77.0852C98.8509 150.183 65.3199 146.576 69.8299 128.273Z" fill="white"/>
</mask>
<g mask="url(#mask4_16459_9597)">
<path d="M72.8789 128.273C54.867 139.397 72.0874 144.569 85.178 153.115C98.2686 161.66 83.4266 138.586 83.4266 138.586M31.25 168.259C31.4795 160.673 39.915 172.754 74.6763 173.954C109.438 175.153 35.246 182.555 35.246 182.555" fill="#2EC8FF"/>
</g>
<path d="M69.8299 128.273H45.9199C50.4299 146.576 16.8989 150.183 38.6646 171.825H77.0852C98.8509 150.183 65.3199 146.576 69.8299 128.273Z" stroke="#000102" stroke-miterlimit="10"/>
<path d="M70.7526 127.477H44.998V129.021H70.7526V127.477Z" fill="#57D1FD" stroke="#000102" stroke-miterlimit="10"/>
<path d="M79.4907 171.055H36.2588V172.599H79.4907V171.055Z" fill="#57D1FD" stroke="#000102" stroke-miterlimit="10"/>
<path d="M54.0974 140.562C53.5068 141.98 52.5304 143.203 51.2793 144.093M71.6529 156.815C68.6161 159.437 64.2899 159.78 60.2839 160" stroke="#2EC8FF" stroke-width="6.746" stroke-linecap="round" stroke-linejoin="round"/>
<path d="M151.652 34.1875H66.2946C61.6446 34.1875 57.875 37.9571 57.875 42.6071V164.174C57.875 168.824 61.6446 172.594 66.2946 172.594H151.652C156.302 172.594 160.072 168.824 160.072 164.174V42.6071C160.072 37.9571 156.302 34.1875 151.652 34.1875Z" fill="#52A8C7"/>
<mask id="mask5_16459_9597" style="mask-type:luminance" maskUnits="userSpaceOnUse" x="57" y="34" width="104" height="139">
<path d="M151.652 34.1875H66.2946C61.6446 34.1875 57.875 37.9571 57.875 42.6071V164.174C57.875 168.824 61.6446 172.594 66.2946 172.594H151.652C156.302 172.594 160.072 168.824 160.072 164.174V42.6071C160.072 37.9571 156.302 34.1875 151.652 34.1875Z" fill="white"/>
</mask>
<g mask="url(#mask5_16459_9597)">
<path d="M71.167 31.535C84.2256 29.9969 83.7678 42.8617 83.7678 42.8617H134.179C134.179 42.8617 133.373 29.7595 138.834 28.3349C144.295 26.9103 69.2676 26.2812 69.2676 26.2812M163.764 107.304C158.541 106.212 157.354 150.848 156.167 162.72C154.979 174.591 88.9742 169.646 83.7507 172.593C78.5273 175.541 168.275 174.591 168.275 174.591L170.65 132.58" fill="#007FAD"/>
</g>
<path d="M151.652 34.1875H66.2946C61.6446 34.1875 57.875 37.9571 57.875 42.6071V164.174C57.875 168.824 61.6446 172.594 66.2946 172.594H151.652C156.302 172.594 160.072 168.824 160.072 164.174V42.6071C160.072 37.9571 156.302 34.1875 151.652 34.1875Z" stroke="#000102" stroke-miterlimit="10"/>
<path d="M148.75 54.375H69.1975C68.4617 54.375 67.8652 54.9715 67.8652 55.7073V158.91C67.8652 159.646 68.4617 160.242 69.1975 160.242H148.75C149.485 160.242 150.082 159.646 150.082 158.91V55.7073C150.082 54.9715 149.485 54.375 148.75 54.375Z" fill="#32A2CA" stroke="#000102" stroke-miterlimit="10"/>
<path d="M150.82 40.3984H67.1263C66.3904 40.3984 65.7939 40.9949 65.7939 41.7308V150.266C65.7939 151.002 66.3904 151.598 67.1263 151.598H150.82C151.555 151.598 152.152 151.002 152.152 150.266V41.7308C152.152 40.9949 151.555 40.3984 150.82 40.3984Z" fill="white" stroke="#000102" stroke-miterlimit="10"/>
<path d="M108.973 14.9063C107.479 14.9062 105.999 15.2006 104.618 15.7726C103.237 16.3445 101.983 17.1828 100.926 18.2396C99.8692 19.2964 99.0309 20.5511 98.459 21.9318C97.8871 23.3126 97.5927 24.7925 97.5928 26.2871C97.5928 32.572 102.688 37.6675 108.973 37.6675C110.468 37.6675 111.948 37.3731 113.329 36.8012C114.709 36.2293 115.964 35.391 117.021 34.3342C118.078 33.2774 118.916 32.0228 119.488 30.6421C120.06 29.2613 120.354 27.7814 120.354 26.2869C120.354 24.7924 120.06 23.3125 119.488 21.9317C118.916 20.5509 118.078 19.2963 117.021 18.2396C115.964 17.1828 114.709 16.3445 113.329 15.7725C111.948 15.2006 110.468 14.9062 108.973 14.9063ZM108.973 29.747C108.289 29.747 107.62 29.5441 107.051 29.1639C106.482 28.7837 106.039 28.2432 105.777 27.611C105.515 26.9787 105.446 26.283 105.58 25.6118C105.713 24.9406 106.043 24.324 106.527 23.8401C107.011 23.3562 107.627 23.0267 108.298 22.8932C108.97 22.7597 109.665 22.8283 110.298 23.0902C110.93 23.3521 111.47 23.7956 111.851 24.3647C112.231 24.9337 112.434 25.6027 112.434 26.2871C112.433 27.2047 112.069 28.0848 111.42 28.7336C110.771 29.3825 109.891 29.747 108.973 29.747Z" fill="#2AC6FE" stroke="#000102" stroke-miterlimit="10"/>
<path d="M124.221 26.9297H112.368C112.22 27.7217 111.799 28.4369 111.179 28.9515C110.559 29.4661 109.779 29.7478 108.973 29.7478C108.167 29.7478 107.387 29.4661 106.767 28.9515C106.147 28.4369 105.726 27.7217 105.578 26.9297H93.7251C91.0842 26.9297 88.5515 27.9788 86.6841 29.8461C84.8167 31.7135 83.7676 34.2462 83.7676 36.8871V42.868C83.7676 43.7862 84.1323 44.6669 84.7816 45.3162C85.4309 45.9655 86.3115 46.3303 87.2297 46.3303H130.716C131.171 46.3303 131.621 46.2407 132.041 46.0667C132.461 45.8927 132.843 45.6377 133.164 45.3162C133.486 44.9947 133.741 44.613 133.915 44.1929C134.089 43.7729 134.178 43.3227 134.178 42.868V36.8871C134.178 35.5795 133.921 34.2847 133.42 33.0766C132.92 31.8685 132.187 30.7708 131.262 29.8461C130.337 28.9215 129.24 28.1881 128.031 27.6876C126.823 27.1872 125.529 26.9297 124.221 26.9297Z" fill="#2AC6FE" stroke="#000102" stroke-miterlimit="10"/>
<path d="M84.179 55.0625H76.4058C75.8947 55.0625 75.4805 55.4768 75.4805 55.9878V63.7611C75.4805 64.2721 75.8947 64.6864 76.4058 64.6864H84.179C84.6901 64.6864 85.1043 64.2721 85.1043 63.7611V55.9878C85.1043 55.4768 84.6901 55.0625 84.179 55.0625Z" fill="#93E3FF" stroke="#000102" stroke-miterlimit="10"/>
<path d="M136.131 56.3828H88.9825C88.6756 56.3828 88.4268 56.6316 88.4268 56.9386V62.8072C88.4268 63.1141 88.6756 63.3629 88.9825 63.3629H136.131C136.437 63.3629 136.686 63.1141 136.686 62.8072V56.9386C136.686 56.6316 136.437 56.3828 136.131 56.3828Z" fill="#93E3FF" stroke="#000102" stroke-miterlimit="10"/>
<path d="M84.179 72.0391H76.4058C75.8947 72.0391 75.4805 72.4533 75.4805 72.9644V80.7376C75.4805 81.2487 75.8947 81.6629 76.4058 81.6629H84.179C84.6901 81.6629 85.1043 81.2487 85.1043 80.7376V72.9644C85.1043 72.4533 84.6901 72.0391 84.179 72.0391Z" fill="#93E3FF" stroke="#000102" stroke-miterlimit="10"/>
<path d="M115.559 73.3594H88.9825C88.6756 73.3594 88.4268 73.6082 88.4268 73.9151V79.7838C88.4268 80.0907 88.6756 80.3395 88.9825 80.3395H115.559C115.866 80.3395 116.115 80.0907 116.115 79.7838V73.9151C116.115 73.6082 115.866 73.3594 115.559 73.3594Z" fill="#93E3FF" stroke="#000102" stroke-miterlimit="10"/>
<path d="M84.179 89.0078H76.4058C75.8947 89.0078 75.4805 89.4221 75.4805 89.9331V97.7064C75.4805 98.2174 75.8947 98.6317 76.4058 98.6317H84.179C84.6901 98.6317 85.1043 98.2174 85.1043 97.7064V89.9331C85.1043 89.4221 84.6901 89.0078 84.179 89.0078Z" fill="#93E3FF" stroke="#000102" stroke-miterlimit="10"/>
<path d="M136.131 90.3359H88.9825C88.6756 90.3359 88.4268 90.5848 88.4268 90.8917V96.7603C88.4268 97.0672 88.6756 97.3161 88.9825 97.3161H136.131C136.437 97.3161 136.686 97.0672 136.686 96.7603V90.8917C136.686 90.5848 136.437 90.3359 136.131 90.3359Z" fill="#93E3FF" stroke="#000102" stroke-miterlimit="10"/>
<path d="M84.179 105.984H76.4058C75.8947 105.984 75.4805 106.399 75.4805 106.91V114.683C75.4805 115.194 75.8947 115.608 76.4058 115.608H84.179C84.6901 115.608 85.1043 115.194 85.1043 114.683V106.91C85.1043 106.399 84.6901 105.984 84.179 105.984Z" fill="#93E3FF" stroke="#000102" stroke-miterlimit="10"/>
<path d="M126.558 107.305H88.9825C88.6756 107.305 88.4268 107.554 88.4268 107.86V113.729C88.4268 114.036 88.6756 114.285 88.9825 114.285H126.558C126.864 114.285 127.113 114.036 127.113 113.729V107.86C127.113 107.554 126.864 107.305 126.558 107.305Z" fill="#93E3FF" stroke="#000102" stroke-miterlimit="10"/>
<path opacity="0.44" d="M84.179 122.961H76.4058C75.8947 122.961 75.4805 123.375 75.4805 123.886V131.66C75.4805 132.171 75.8947 132.585 76.4058 132.585H84.179C84.6901 132.585 85.1043 132.171 85.1043 131.66V123.886C85.1043 123.375 84.6901 122.961 84.179 122.961Z" fill="#93E3FF" stroke="#000102" stroke-miterlimit="10"/>
<path opacity="0.44" d="M116.934 124.281H88.9825C88.6756 124.281 88.4268 124.53 88.4268 124.837V130.706C88.4268 131.013 88.6756 131.261 88.9825 131.261H116.934C117.241 131.261 117.489 131.013 117.489 130.706V124.837C117.489 124.53 117.241 124.281 116.934 124.281Z" fill="#93E3FF" stroke="#000102" stroke-miterlimit="10"/>
<path d="M181.333 76.8407C181.649 76.4753 172.77 70.1808 176.737 74.9701C176.483 75.1526 172.787 74.4591 171.699 74.0785C169.32 75.8388 181.091 77.8421 180.559 79.9682C181.331 80.8477 181.328 76.9748 181.333 76.8407Z" fill="#D1F3FF"/>
<mask id="mask6_16459_9597" style="mask-type:luminance" maskUnits="userSpaceOnUse" x="171" y="73" width="11" height="8">
<path d="M181.333 76.8407C181.649 76.4753 172.77 70.1808 176.737 74.9701C176.483 75.1526 172.787 74.4591 171.699 74.0785C169.32 75.8388 181.091 77.8421 180.559 79.9682C181.331 80.8477 181.328 76.9748 181.333 76.8407Z" fill="white"/>
</mask>
<g mask="url(#mask6_16459_9597)">
<path d="M169.589 74.6025C171.176 77.0753 178.158 75.5695 179.674 75.7881C181.19 76.0068 179.834 73.8698 179.834 73.8698L173.954 73.3203" fill="#ABE1F4"/>
</g>
<path d="M181.333 76.8407C181.649 76.4753 172.77 70.1808 176.737 74.9701C176.483 75.1526 172.787 74.4591 171.699 74.0785C169.32 75.8388 181.091 77.8421 180.559 79.9682C181.331 80.8477 181.328 76.9748 181.333 76.8407Z" stroke="#000102" stroke-miterlimit="10"/>
<path d="M141.013 75.1788L140.918 58.1311L213.397 57.7032C216.314 57.686 218.689 59.5821 218.702 61.9383L218.75 70.4534C218.763 72.8096 216.409 74.7337 213.492 74.7509L141.013 75.1788Z" fill="#32A2CA"/>
<mask id="mask7_16459_9597" style="mask-type:luminance" maskUnits="userSpaceOnUse" x="140" y="57" width="79" height="19">
<path d="M141.013 75.1788L140.918 58.1311L213.397 57.7032C216.314 57.686 218.689 59.5821 218.702 61.9383L218.75 70.4534C218.763 72.8096 216.409 74.7337 213.492 74.7509L141.013 75.1788Z" fill="white"/>
</mask>
<g mask="url(#mask7_16459_9597)">
<path d="M207.128 63.4081L207.113 60.7656L138.399 61.1494L138.413 63.7919L207.128 63.4081Z" fill="#1DA5D5"/>
<path d="M207.154 68.1581L207.14 65.5156L138.425 65.8994L138.44 68.5419L207.154 68.1581Z" fill="#1DA5D5"/>
<path d="M207.18 72.7206L207.165 70.0781L138.45 70.4619L138.465 73.1044L207.18 72.7206Z" fill="#1DA5D5"/>
<path d="M220.398 77.5324L220.271 54.7344L209.183 54.7963L209.31 77.5943L220.398 77.5324Z" fill="#2AC6FE" stroke="#000102" stroke-miterlimit="10"/>
<path d="M209.689 75.3719L209.573 54.6094L207.079 54.6233L207.194 75.3858L209.689 75.3719Z" fill="white" stroke="#000102" stroke-miterlimit="10"/>
<path d="M149.241 74.2121C147.7 74.8809 149.532 76.8519 149.532 76.8519L167.848 76.6435L156.032 72.7242C156.032 72.7242 151.763 73.9174 150.527 73.7993M178.533 56.8694C178.777 58.2737 180.308 59.4935 180.308 59.4935C177.923 62.3644 180.308 62.2317 180.308 62.2317C177.863 70.2375 183.929 66.4402 183.929 66.4402L179.359 79.8928L187.247 75.7968L186.906 61.5249L183.653 53.9844" fill="#1DA5D5"/>
</g>
<path d="M141.013 75.1788L140.918 58.1311L213.397 57.7032C216.314 57.686 218.689 59.5821 218.702 61.9383L218.75 70.4534C218.763 72.8096 216.409 74.7337 213.492 74.7509L141.013 75.1788Z" stroke="#000102" stroke-miterlimit="10"/>
<path d="M126.249 66.7357C126.246 66.1233 126.571 65.5636 127.084 65.2972L140.918 58.125L141.013 75.1726L127.1 68.1642C126.584 67.904 126.252 67.3481 126.249 66.7357Z" fill="#D1F3FF"/>
<mask id="mask8_16459_9597" style="mask-type:luminance" maskUnits="userSpaceOnUse" x="126" y="58" width="16" height="18">
<path d="M126.249 66.7357C126.246 66.1233 126.571 65.5636 127.084 65.2972L140.918 58.125L141.013 75.1726L127.1 68.1642C126.584 67.904 126.252 67.3481 126.249 66.7357Z" fill="white"/>
</mask>
<g mask="url(#mask8_16459_9597)">
<path d="M143.149 78.6332L143.016 54.6953L138.782 54.719L138.916 78.6569L143.149 78.6332Z" fill="#57D1FD" stroke="#000102" stroke-miterlimit="10"/>
<path d="M123.56 73.1687C127.734 73.0908 131.056 69.6844 130.979 65.5603C130.902 61.4362 127.456 58.1561 123.281 58.234C119.107 58.3119 115.785 61.7183 115.862 65.8424C115.939 69.9665 119.385 73.2466 123.56 73.1687Z" fill="#2AC6FE" stroke="#000102" stroke-miterlimit="10"/>
</g>
<path d="M126.249 66.7357C126.246 66.1233 126.571 65.5636 127.084 65.2972L140.918 58.125L141.013 75.1726L127.1 68.1642C126.584 67.904 126.252 67.3481 126.249 66.7357Z" stroke="#000102" stroke-miterlimit="10"/>
<path d="M162.569 77.1333C163.039 76.5063 158.373 73.9742 156.032 72.7229C155.607 71.8048 153.936 72.5872 156.406 74.7106C155.876 75.1289 150.22 73.5195 149.292 73.6799C148.314 76.6292 161.821 78.1342 161.468 81.1067C162.576 82.5606 162.561 77.2185 162.569 77.1333Z" fill="#D1F3FF"/>
<mask id="mask9_16459_9597" style="mask-type:luminance" maskUnits="userSpaceOnUse" x="149" y="72" width="14" height="10">
<path d="M162.569 77.1333C163.039 76.5063 158.373 73.9742 156.032 72.7229C155.607 71.8048 153.936 72.5872 156.406 74.7106C155.876 75.1289 150.22 73.5195 149.292 73.6799C148.314 76.6292 161.821 78.1342 161.468 81.1067C162.576 82.5606 162.561 77.2185 162.569 77.1333Z" fill="white"/>
</mask>
<g mask="url(#mask9_16459_9597)">
<path d="M156.244 78.2906C156.921 78.4252 157.774 77.9067 158.387 76.976C163.675 70.2519 159.674 82.1623 156.763 78.9623" fill="#ABE1F4"/>
</g>
<path d="M162.569 77.1333C163.039 76.5063 158.373 73.9742 156.032 72.7229C155.607 71.8048 153.936 72.5872 156.406 74.7106C155.876 75.1289 150.22 73.5195 149.292 73.6799C148.314 76.6292 161.821 78.1342 161.468 81.1067C162.576 82.5606 162.561 77.2185 162.569 77.1333Z" stroke="#000102" stroke-miterlimit="10"/>
<path d="M168.697 169.566L163.792 167.901L166.718 158.836H172.478L168.697 169.566Z" fill="#D1F3FF"/>
<mask id="mask10_16459_9597" style="mask-type:luminance" maskUnits="userSpaceOnUse" x="163" y="158" width="10" height="12">
<path d="M168.697 169.566L163.792 167.901L166.718 158.836H172.478L168.697 169.566Z" fill="white"/>
</mask>
<g mask="url(#mask10_16459_9597)">
<path d="M165.221 162.1C160.047 163.148 172.636 164.641 171.142 167.424C172.724 160.637 171.994 161.974 168.087 160.727" fill="#ABE1F4"/>
</g>
<path d="M168.697 169.566L163.792 167.901L166.718 158.836H172.478L168.697 169.566Z" stroke="#000102" stroke-miterlimit="10"/>
<path d="M151.006 171.995C152.628 167.794 163.572 169.533 164.305 165.368C164.32 165.341 169.932 165.924 170.087 165.918C169.262 167.793 169.222 172.029 167.563 171.995C166.208 171.995 151.07 171.995 151.006 171.995Z" fill="#2AC6FE" stroke="#000102" stroke-miterlimit="10"/>
<path d="M196.775 168.177L192.053 168.488L190.403 159.511L196.151 159.133L196.775 168.177Z" fill="#D1F3FF"/>
<mask id="mask11_16459_9597" style="mask-type:luminance" maskUnits="userSpaceOnUse" x="190" y="159" width="7" height="10">
<path d="M196.775 168.177L192.053 168.488L190.403 159.511L196.151 159.133L196.775 168.177Z" fill="white"/>
</mask>
<g mask="url(#mask11_16459_9597)">
<path d="M189.952 160.898C187.65 165.01 196.995 162.634 198.013 165.196C200.075 160.798 192.724 162.181 190.73 161.434" fill="#ABE1F4"/>
</g>
<path d="M196.775 168.177L192.053 168.488L190.403 159.511L196.151 159.133L196.775 168.177Z" stroke="#000102" stroke-miterlimit="10"/>
<path d="M181.333 172.594C181.067 168.806 191.751 168.612 191.352 165.994C191.969 165.929 196.797 165.414 196.941 165.398C196.976 167.301 198.46 171.562 196.505 171.543C195.152 171.637 181.404 172.589 181.333 172.594Z" fill="#2AC6FE" stroke="#000102" stroke-miterlimit="10"/>
<path d="M185.808 65.3885L184.324 76.6508L190.518 75.3546V64.6094L185.808 65.3885Z" fill="#D1F3FF"/>
<mask id="mask12_16459_9597" style="mask-type:luminance" maskUnits="userSpaceOnUse" x="184" y="64" width="7" height="13">
<path d="M185.808 65.3885L184.324 76.6508L190.518 75.3546V64.6094L185.808 65.3885Z" fill="white"/>
</mask>
<g mask="url(#mask12_16459_9597)">
<path d="M183.147 71.0015C187.833 67.39 188.826 65.0781 188.826 65.0781L185.206 65.1693L183.147 71.0015Z" fill="#ABE1F4"/>
</g>
<path d="M185.808 65.3885L184.324 76.6508L190.518 75.3546V64.6094L185.808 65.3885Z" stroke="#000102" stroke-miterlimit="10"/>
<path d="M183.606 72.5466C183.606 72.5466 179.43 77.1194 184.091 71.0989C188.752 65.0785 193.528 65.8657 190.652 68.0509C188.228 69.8933 187.252 70.5289 187.252 70.5289" fill="#57D1FD"/>
<path d="M183.606 72.5466C183.606 72.5466 179.43 77.1194 184.091 71.0989C188.752 65.0785 193.528 65.8657 190.652 68.0509C188.228 69.8933 187.252 70.5289 187.252 70.5289" stroke="#000102" stroke-miterlimit="10"/>
<path d="M184.168 93.904C184.168 93.904 182.621 161.79 183.971 162.859C196.94 165.401 198.714 162.724 198.714 162.724C198.714 162.724 198.724 161.292 198.725 158.838C198.726 156.601 198.72 153.515 198.69 149.892C198.666 146.903 198.627 143.548 198.564 140.002C198.218 120.514 197.16 95.2576 194.014 93.2568C188.841 89.9667 184.168 93.904 184.168 93.904Z" fill="#52A8C7"/>
<mask id="mask13_16459_9597" style="mask-type:luminance" maskUnits="userSpaceOnUse" x="183" y="91" width="16" height="73">
<path d="M184.168 93.904C184.168 93.904 182.621 161.79 183.971 162.859C196.94 165.401 198.714 162.724 198.714 162.724C198.714 162.724 198.724 161.292 198.725 158.838C198.726 156.601 198.72 153.515 198.69 149.892C198.666 146.903 198.627 143.548 198.564 140.002C198.218 120.514 197.16 95.2576 194.014 93.2568C188.841 89.9667 184.168 93.904 184.168 93.904Z" fill="white"/>
</mask>
<g mask="url(#mask13_16459_9597)">
<path d="M181.933 146.476C192.392 134.997 187.192 124.833 190.737 109.569C193.631 97.1089 176.285 125.58 176.285 125.58V133.532" fill="#007FAD"/>
</g>
<path d="M184.168 93.904C184.168 93.904 182.621 161.79 183.971 162.859C196.94 165.401 198.714 162.724 198.714 162.724C198.714 162.724 198.724 161.292 198.725 158.838C198.726 156.601 198.72 153.515 198.69 149.892C198.666 146.903 198.627 143.548 198.564 140.002C198.218 120.514 197.16 95.2576 194.014 93.2568C188.841 89.9667 184.168 93.904 184.168 93.904Z" stroke="#000102" stroke-miterlimit="10"/>
<path d="M194.715 90.5625L179.969 92.9285L179.662 95.8949C179.662 95.8949 160.627 160.335 161.938 162.072C175.767 167.181 176.774 164.202 176.774 164.202C176.774 164.202 184.555 128.825 190.486 106.866" fill="#52A8C7"/>
<mask id="mask14_16459_9597" style="mask-type:luminance" maskUnits="userSpaceOnUse" x="161" y="90" width="34" height="76">
<path d="M194.715 90.5625L179.969 92.9285L179.662 95.8949C179.662 95.8949 160.627 160.335 161.938 162.072C175.767 167.181 176.774 164.202 176.774 164.202C176.774 164.202 184.555 128.825 190.486 106.866" fill="white"/>
</mask>
<g mask="url(#mask14_16459_9597)">
<path d="M163.792 111.183C184.032 112.649 174.583 100.125 191.168 97.9609C207.753 95.7972 174.894 93.2578 174.894 93.2578L171.24 100.01M175.02 126.602C174.727 132.908 164.828 132.603 164.617 126.602C164.91 120.295 174.809 120.6 175.02 126.602Z" fill="#007FAD"/>
</g>
<path d="M194.715 90.5625L179.969 92.9285L179.662 95.8949C179.662 95.8949 160.627 160.335 161.938 162.072C175.767 167.181 176.774 164.202 176.774 164.202C176.774 164.202 184.555 128.825 190.486 106.866" stroke="#000102" stroke-miterlimit="10"/>
<path d="M176.66 97.1544C176.683 97.1301 181.48 85.3775 181.769 84.6972C180.983 82.6577 177.114 78.1512 180.055 75.3765C180.124 75.3713 184.334 70.7653 184.139 71.0817C185.249 70.7393 189.756 67.4033 190.781 68.2229C202.876 77.899 195.11 91.1537 199.884 98.025C200.05 101.161 169.337 105.399 176.66 97.1544Z" fill="#57D1FD"/>
<mask id="mask15_16459_9597" style="mask-type:luminance" maskUnits="userSpaceOnUse" x="175" y="68" width="25" height="34">
<path d="M176.66 97.1544C176.683 97.1301 181.48 85.3775 181.769 84.6972C180.983 82.6577 177.114 78.1512 180.055 75.3765C180.124 75.3713 184.334 70.7653 184.139 71.0817C185.249 70.7393 189.756 67.4033 190.781 68.2229C202.876 77.899 195.11 91.1537 199.884 98.025C200.05 101.161 169.337 105.399 176.66 97.1544Z" fill="white"/>
</mask>
<g mask="url(#mask15_16459_9597)">
<path d="M185.802 84.5624C190.182 81.8929 176.118 103.874 192.709 101.946C199.937 101.249 173.851 106.269 173.851 106.269L166.187 96.3866L173.851 83.1209L183.358 80.1016" fill="#22ACDD"/>
</g>
<path d="M176.66 97.1544C176.683 97.1301 181.48 85.3775 181.769 84.6972C180.983 82.6577 177.114 78.1512 180.055 75.3765C180.124 75.3713 184.334 70.7653 184.139 71.0817C185.249 70.7393 189.756 67.4033 190.781 68.2229C202.876 77.899 195.11 91.1537 199.884 98.025C200.05 101.161 169.337 105.399 176.66 97.1544Z" stroke="#000102" stroke-miterlimit="10"/>
<path d="M182.2 74.2109C169.619 84.6381 176.936 83.2161 161.661 75.6322C159.226 73.0786 157.942 80.9108 158.105 80.2938C156.836 85.0823 159.136 88.7081 162.601 91.0826C178.363 101.885 178.461 90.9333 187.246 83.2425" fill="#57D1FD"/>
<path d="M182.2 74.2109C169.619 84.6381 176.936 83.2161 161.661 75.6322C159.226 73.0786 157.942 80.9108 158.105 80.2938C156.836 85.0823 159.136 88.7081 162.601 91.0826C178.363 101.885 178.461 90.9333 187.246 83.2425" stroke="#000102" stroke-miterlimit="10"/>
<path d="M185.642 64.6928C181.784 62.2892 179.559 59.0068 184.991 58.4337C187.624 56.215 189.89 58.0458 189.89 58.0458C189.89 58.0458 192.828 62.8824 192.875 63.0196C193.621 65.2204 190.404 68.8261 190.347 66.2931" fill="#000102"/>
<mask id="mask16_16459_9597" style="mask-type:luminance" maskUnits="userSpaceOnUse" x="181" y="57" width="12" height="11">
<path d="M185.642 64.6928C181.784 62.2892 179.559 59.0068 184.991 58.4337C187.624 56.215 189.89 58.0458 189.89 58.0458C189.89 58.0458 192.828 62.8824 192.875 63.0196C193.621 65.2204 190.404 68.8261 190.347 66.2931" fill="white"/>
</mask>
<g mask="url(#mask16_16459_9597)">
<path d="M181.625 62.0228C182.392 62.0329 183.289 60.4281 183.763 60.2205C184.236 60.0128 183.812 63.6339 183.812 63.6339M190.95 62.8797C189.926 63.2299 192.839 65.9889 192.839 65.9889L193.918 63.821L192.069 63.1652M187.201 57.0878C186.198 57.4743 189.133 57.9047 188.406 58.4549C187.679 59.0052 185.557 58.4549 185.557 58.4549L186.057 56.8281" fill="#0E2128"/>
</g>
<path d="M185.642 64.6928C181.784 62.2892 179.559 59.0068 184.991 58.4337C187.624 56.215 189.89 58.0458 189.89 58.0458C189.89 58.0458 192.828 62.8824 192.875 63.0196C193.621 65.2204 190.404 68.8261 190.347 66.2931" stroke="#000102" stroke-miterlimit="10"/>
<path d="M185.502 58.8359C182.588 59.7089 183.823 62.4445 183.191 63.6084C182.559 64.7723 182.522 68.1528 185.331 67.4981C188.139 66.8434 190.066 65.6738 190.066 65.6738L188.662 60.9802L185.502 58.8359Z" fill="#D1F3FF"/>
<mask id="mask17_16459_9597" style="mask-type:luminance" maskUnits="userSpaceOnUse" x="182" y="58" width="9" height="10">
<path d="M185.502 58.8359C182.588 59.7089 183.823 62.4445 183.191 63.6084C182.559 64.7723 182.522 68.1528 185.331 67.4981C188.139 66.8434 190.066 65.6738 190.066 65.6738L188.662 60.9802L185.502 58.8359Z" fill="white"/>
</mask>
<g mask="url(#mask17_16459_9597)">
<path d="M183.908 59.475C184.08 60.9623 187.294 63.0962 187.294 63.0962C187.294 63.0962 187.123 64.0455 187.528 64.3145C187.934 64.5835 188.449 62.0939 188.449 62.0939L186.4 59.1797H184.922" fill="#ABE1F4"/>
</g>
<path d="M185.502 58.8359C182.588 59.7089 183.823 62.4445 183.191 63.6084C182.559 64.7723 182.522 68.1528 185.331 67.4981C188.139 66.8434 190.066 65.6738 190.066 65.6738L188.662 60.9802L185.502 58.8359Z" stroke="#000102" stroke-miterlimit="10"/>
<path d="M190.066 66.2918C186.134 65.9281 187.503 63.0911 187.503 63.0911C187.503 63.0911 183.37 60.045 184.283 58.0445C185.196 56.0441 190.277 59.0538 190.523 60.7996C190.768 62.5455 191.979 65.455 190.066 66.2918Z" fill="#000102"/>
<mask id="mask18_16459_9597" style="mask-type:luminance" maskUnits="userSpaceOnUse" x="184" y="57" width="8" height="10">
<path d="M190.066 66.2918C186.134 65.9281 187.503 63.0911 187.503 63.0911C187.503 63.0911 183.37 60.045 184.283 58.0445C185.196 56.0441 190.277 59.0538 190.523 60.7996C190.768 62.5455 191.979 65.455 190.066 66.2918Z" fill="white"/>
</mask>
<g mask="url(#mask18_16459_9597)">
<path d="M189.615 64.3125C190.384 65.767 189.221 66.6723 189.221 66.6723L187.367 66.1431L188.325 65.0474" fill="#0E2128"/>
</g>
<path d="M190.066 66.2918C186.134 65.9281 187.503 63.0911 187.503 63.0911C187.503 63.0911 183.37 60.045 184.283 58.0445C185.196 56.0441 190.277 59.0538 190.523 60.7996C190.768 62.5455 191.979 65.455 190.066 66.2918Z" stroke="#000102" stroke-miterlimit="10"/>
<path d="M189.655 57.1788C189.982 55.955 191.018 57.2541 191.2 58.4968C191.381 59.7395 193.835 60.6244 191.981 61.66H191.579C191.579 61.66 191.69 60.4464 190.818 60.1965C189.946 59.9466 189.455 57.9167 188.655 57.8584C188.655 57.8584 188.873 56.5763 189.655 57.1788Z" fill="#2AC6FE"/>
<mask id="mask19_16459_9597" style="mask-type:luminance" maskUnits="userSpaceOnUse" x="188" y="56" width="5" height="6">
<path d="M189.655 57.1788C189.982 55.955 191.018 57.2541 191.2 58.4968C191.381 59.7395 193.835 60.6244 191.981 61.66H191.579C191.579 61.66 191.69 60.4464 190.818 60.1965C189.946 59.9466 189.455 57.9167 188.655 57.8584C188.655 57.8584 188.873 56.5763 189.655 57.1788Z" fill="white"/>
</mask>
<g mask="url(#mask19_16459_9597)">
<path d="M190.959 56.6875C189.48 57.61 190.198 59.1737 190.198 59.1737L190.067 59.4368C190.067 59.4368 189.594 57.5249 188.656 57.8584C187.717 58.192 187.64 58.5153 187.64 58.5153L190.289 60.198L191.306 58.3375L191.127 56.8664" fill="#2EC8FF"/>
</g>
<path d="M189.655 57.1788C189.982 55.955 191.018 57.2541 191.2 58.4968C191.381 59.7395 193.835 60.6244 191.981 61.66H191.579C191.579 61.66 191.69 60.4464 190.818 60.1965C189.946 59.9466 189.455 57.9167 188.655 57.8584C188.655 57.8584 188.873 56.5763 189.655 57.1788Z" stroke="#000102" stroke-miterlimit="10"/>
<path d="M195.225 65.5466C198.143 65.5466 200.508 63.5634 200.508 61.1171C200.508 58.6707 198.143 56.6875 195.225 56.6875C192.307 56.6875 189.941 58.6707 189.941 61.1171C189.941 63.5634 192.307 65.5466 195.225 65.5466Z" fill="#000102"/>
<mask id="mask20_16459_9597" style="mask-type:luminance" maskUnits="userSpaceOnUse" x="189" y="56" width="12" height="10">
<path d="M195.225 65.5466C198.143 65.5466 200.508 63.5634 200.508 61.1171C200.508 58.6707 198.143 56.6875 195.225 56.6875C192.307 56.6875 189.941 58.6707 189.941 61.1171C189.941 63.5634 192.307 65.5466 195.225 65.5466Z" fill="white"/>
</mask>
<g mask="url(#mask20_16459_9597)">
<path d="M197.707 56.311C197.583 60.5277 197.416 61.8405 196.376 60.8392C195.336 59.8379 195.225 56.6899 195.225 56.6899L198.123 54.4375" fill="#0E2128"/>
</g>
<path d="M195.225 65.5466C198.143 65.5466 200.508 63.5634 200.508 61.1171C200.508 58.6707 198.143 56.6875 195.225 56.6875C192.307 56.6875 189.941 58.6707 189.941 61.1171C189.941 63.5634 192.307 65.5466 195.225 65.5466Z" stroke="#000102" stroke-miterlimit="10"/>
<path d="M193.917 62.297C195.858 62.297 197.431 60.667 197.431 58.6563C197.431 56.6456 195.858 55.0156 193.917 55.0156C191.977 55.0156 190.403 56.6456 190.403 58.6563C190.403 60.667 191.977 62.297 193.917 62.297Z" fill="#000102" stroke="#000102" stroke-miterlimit="10"/>
<path d="M186.663 64.4947C191.223 62.2356 190.03 67.0295 187.163 66.0838L186.663 64.4947Z" fill="#D1F3FF"/>
<path d="M186.663 64.4947C191.223 62.2356 190.03 67.0295 187.163 66.0838" stroke="#000102" stroke-miterlimit="10"/>
<path d="M184.265 63.8983C184.305 63.908 184.347 63.9095 184.388 63.9028C184.429 63.896 184.469 63.8811 184.504 63.8589C184.539 63.8368 184.57 63.8078 184.594 63.7736C184.618 63.7395 184.634 63.7009 184.643 63.6602L184.769 63.1272C184.789 63.0448 184.777 62.9577 184.734 62.8844C184.691 62.8112 184.621 62.7576 184.539 62.7352C184.499 62.7255 184.457 62.7239 184.416 62.7307C184.374 62.7375 184.335 62.7524 184.3 62.7745C184.265 62.7967 184.234 62.8257 184.21 62.8599C184.186 62.894 184.169 62.9325 184.161 62.9733L184.035 63.5063C184.015 63.5887 184.027 63.6758 184.07 63.749C184.113 63.8223 184.183 63.8758 184.265 63.8983Z" fill="#0E2128"/>
<path d="M183.856 63.1047C183.538 64.3644 184.775 64.6724 185.155 63.5236C185.474 62.2639 184.237 61.9559 183.856 63.1047Z" fill="white"/>
<mask id="mask21_16459_9597" style="mask-type:luminance" maskUnits="userSpaceOnUse" x="183" y="62" width="3" height="3">
<path d="M183.856 63.1047C183.538 64.3644 184.775 64.6724 185.155 63.5236C185.474 62.2639 184.237 61.9559 183.856 63.1047Z" fill="white"/>
</mask>
<g mask="url(#mask21_16459_9597)">
<path d="M183.708 63.1403C183.584 63.7537 184.202 63.964 184.389 63.3038C184.513 62.6904 183.895 62.4802 183.708 63.1403Z" fill="#0E2128"/>
</g>
<path d="M183.613 62.9688C182.93 63.5018 182.452 63.5317 182.389 63.795C182.326 64.0583 182.676 64.5551 183.289 64.6622" fill="#D1F3FF"/>
<path d="M183.613 62.9688C182.93 63.5018 182.452 63.5317 182.389 63.795C182.326 64.0583 182.676 64.5551 183.289 64.6622" stroke="#000102" stroke-miterlimit="10"/>
<path d="M184.516 61.6107C185.445 61.8015 185.556 62.2482 184.968 62.1682C184.381 62.0882 183.91 61.486 184.516 61.6107Z" fill="#0E2128"/>
<path opacity="0.3" d="M186.526 64.3689C186.55 64.0689 186.252 63.7999 185.859 63.7681C185.467 63.7362 185.129 63.9536 185.105 64.2537C185.08 64.5537 185.379 64.8227 185.771 64.8545C186.164 64.8863 186.501 64.6689 186.526 64.3689Z" fill="#ABE1F4"/>
<path d="M193.918 56.8281C195.315 57.4252 194.067 58.834 194.067 58.834C195.274 58.891 195.742 57.3813 193.918 56.8281ZM190.662 61.5482C189.916 62.3829 191.414 62.3898 191.414 62.3898L190.662 61.5482Z" fill="#0E2128"/>
<path d="M159.206 80.0972C158.902 79.8218 159.07 79.8218 159.206 80.0972C158.078 80.4835 159.389 80.3678 159.206 80.0972Z" fill="#57D1FD"/>
<path d="M159.206 80.0972C158.902 79.8218 159.07 79.8218 159.206 80.0972ZM159.206 80.0972C158.078 80.4835 159.389 80.3678 159.206 80.0972Z" stroke="#000102" stroke-miterlimit="10"/>
<path d="M161.021 165.727L162.699 167.183L157.475 166.641M188.203 166.035L190.075 167.13C188.078 167.609 186.021 167.789 183.971 167.663" stroke="#000102" stroke-width="5.204" stroke-linecap="round" stroke-linejoin="round"/>
<path d="M156.5 74.8359L156.837 74.8984" stroke="#ABE1F4" stroke-width="5.204" stroke-linecap="round" stroke-linejoin="round"/>
</svg>
