<svg width="220" height="220" viewBox="0 0 220 220" fill="none" xmlns="http://www.w3.org/2000/svg">
<path d="M197.649 196.416H24.4136C24.22 196.416 24.0625 196.259 24.0625 196.065C24.0625 195.871 24.22 195.714 24.4136 195.714H197.649C197.842 195.714 198 195.871 198 196.065C198 196.259 197.842 196.416 197.649 196.416ZM147.544 58.7656C147.544 58.7656 141.814 59.8533 138.584 64.842C135.354 69.8308 135.302 74.1084 132.385 75.5516C129.468 76.9948 127.488 76.8672 125.405 80.0651C123.321 83.2631 125.978 86.9089 124.415 88.8282C122.852 90.7475 116.497 91.8343 116.08 100.149C115.663 108.465 119.987 115.116 127.54 118.187C135.094 121.257 157.91 109.616 157.91 109.616L151.191 69.895L147.544 58.7656Z" fill="#003447"/>
<path d="M111.032 116.222L98.7987 126.024L86.5852 78.3281L61.7393 82.5284L77.4261 144.567C78.9846 150.731 83.4295 155.761 89.3563 158.067C96.1631 160.715 103.876 159.37 109.385 154.576L130.118 136.533" fill="white"/>
<path d="M96.4988 159.762C94.055 159.762 91.5928 159.313 89.2291 158.393C83.209 156.051 78.6691 150.914 77.086 144.652L61.3982 82.6137C61.3745 82.5187 61.3912 82.4175 61.4449 82.3356C61.4986 82.2538 61.5839 82.1975 61.6807 82.1816L86.5266 77.9814C86.7053 77.9515 86.8804 78.0632 86.9253 78.2401L99.0042 125.409L110.812 115.947C110.962 115.827 111.184 115.85 111.306 116.002C111.427 116.153 111.402 116.374 111.251 116.495L99.0182 126.298C98.925 126.373 98.8 126.394 98.6874 126.357C98.5738 126.319 98.4876 126.227 98.4586 126.11L86.3251 78.7276L62.1735 82.81L77.7671 144.479C79.2948 150.522 83.6746 155.479 89.4834 157.738C96.1908 160.348 103.727 159.033 109.155 154.31L129.888 136.267C130.033 136.14 130.256 136.156 130.383 136.302C130.511 136.448 130.495 136.669 130.349 136.797L109.616 154.84C105.904 158.069 101.238 159.762 96.4988 159.762Z" fill="#003447"/>
<path d="M137.89 120.49L124.621 147.178L112.598 133.712L108.337 128.941L101.67 121.478L118.146 108.818C120.567 106.823 123.723 105.953 126.826 106.435L132.815 107.362L137.89 120.49Z" fill="#32A2CA"/>
<path opacity="0.4" d="M115.177 130.301C115.177 131.925 114.086 133.293 112.597 133.714L108.336 128.943C108.865 127.65 110.138 126.742 111.618 126.742C113.585 126.742 115.177 128.334 115.177 130.301Z" fill="white"/>
<path d="M124.619 147.532C124.52 147.532 124.425 147.49 124.357 147.415L101.405 121.713C101.34 121.64 101.308 121.544 101.317 121.447C101.326 121.349 101.376 121.26 101.452 121.201L117.929 108.542C118.084 108.423 118.304 108.453 118.421 108.606C118.539 108.76 118.51 108.98 118.357 109.099L102.181 121.528L124.536 146.56L137.574 120.337C137.66 120.164 137.869 120.093 138.045 120.179C138.218 120.265 138.289 120.476 138.203 120.65L124.933 147.337C124.882 147.441 124.781 147.513 124.666 147.529C124.65 147.531 124.635 147.532 124.619 147.532Z" fill="#003447"/>
<path d="M105.925 196.068L113.134 163.039L167.029 169.467L164.593 196.068H105.925Z" fill="#003447"/>
<path d="M131.527 107.367L167.088 108.521C172.133 108.685 175.941 113.156 175.301 118.163L168.016 175.105L109.72 169.923L131.527 107.367Z" fill="#32A2CA"/>
<path opacity="0.4" d="M161.211 168.002C163.555 168.002 165.454 166.103 165.454 163.759C165.454 161.415 163.555 159.516 161.211 159.516C158.868 159.516 156.968 161.415 156.968 163.759C156.968 166.103 158.868 168.002 161.211 168.002Z" fill="white"/>
<path d="M109.719 170.268C109.68 170.268 109.641 170.262 109.604 170.248C109.421 170.184 109.324 169.984 109.388 169.801L127.522 117.783C127.586 117.6 127.786 117.503 127.969 117.566C128.152 117.631 128.249 117.83 128.185 118.013L110.051 170.032C110 170.177 109.865 170.268 109.719 170.268Z" fill="#003447"/>
<path d="M143.178 109.474L143.898 93.4051L158.851 90.2891L159.411 107.348C159.46 108.843 158.899 110.299 157.837 111.352C156.098 113.076 153.013 115.278 148.742 115.037C143.173 114.724 143.178 109.474 143.178 109.474Z" fill="white"/>
<path d="M149.391 115.407C149.171 115.407 148.948 115.401 148.721 115.388C142.889 115.059 142.826 109.529 142.826 109.473C142.826 109.468 142.826 109.463 142.827 109.458L143.547 93.3896C143.554 93.2294 143.669 93.0939 143.826 93.0613L158.779 89.9453C158.881 89.9233 158.986 89.9488 159.067 90.013C159.148 90.0772 159.198 90.174 159.201 90.2779L159.762 107.337C159.814 108.937 159.203 110.492 158.084 111.602C156.304 113.366 153.383 115.407 149.391 115.407ZM143.528 109.48C143.531 109.766 143.65 114.398 148.761 114.686C152.839 114.914 155.812 112.864 157.59 111.102C158.571 110.13 159.106 108.765 159.06 107.359L158.514 90.717L144.237 93.6923L143.528 109.48Z" fill="#003447"/>
<path d="M159.029 92.4606C166.122 84.7967 164.525 72.2682 164.525 72.2682L143.264 63.3828C142.869 63.7067 134.852 70.231 133.478 83.3562C132.347 94.1696 142.71 100.257 153.798 96.1813" fill="white"/>
<path d="M146.903 97.8095C143.44 97.8095 140.236 96.8098 137.724 94.8544C134.265 92.1616 132.633 88.0652 133.129 83.3185C134.474 70.4688 142.164 63.8283 143.037 63.1137C143.138 63.031 143.28 63.0072 143.4 63.0574L164.661 71.9419C164.777 71.9903 164.858 72.0968 164.874 72.2217C164.889 72.3484 166.409 85.0028 159.287 92.6976C159.154 92.8401 158.933 92.848 158.791 92.7169C158.648 92.5849 158.641 92.3631 158.772 92.2206C165.186 85.2906 164.358 74.1375 164.198 72.5104L143.325 63.7887C141.95 64.9679 135.08 71.406 133.827 83.3924C133.356 87.8884 134.894 91.7621 138.155 94.3009C142.12 97.3871 147.923 97.9661 153.676 95.8515C153.858 95.7837 154.06 95.8779 154.127 96.06C154.194 96.2422 154.101 96.4437 153.918 96.5106C151.551 97.3809 149.172 97.8095 146.903 97.8095Z" fill="#003447"/>
<path d="M159.926 80.422C159.926 80.422 148.701 72.9684 144.351 65.6125C144.351 65.6125 140.305 66.2734 139.285 67.7861C139.285 67.7861 138.018 60.7514 145.182 58.7687C152.346 56.7861 168.784 62.287 171.279 72.1368C172.919 78.6136 172.744 92.9832 172.431 102.065C172.279 106.473 168.949 108.644 164.545 108.4L159.478 108.274L158.549 93.0562C162.525 89.4192 161.521 84.969 159.926 80.422Z" fill="#003447"/>
<path d="M140.778 78.3593C141.025 77.5964 140.811 76.8436 140.299 76.6778C139.787 76.5121 139.172 76.9963 138.925 77.7592C138.678 78.5221 138.892 79.275 139.404 79.4407C139.916 79.6064 140.531 79.1222 140.778 78.3593Z" fill="#003447"/>
<path d="M139.284 75.1017C140.277 74.8122 141.386 75.2055 142.097 76.0979L139.284 75.1017Z" fill="white"/>
<path d="M142.097 76.449C141.994 76.449 141.892 76.4033 141.823 76.317C141.199 75.5338 140.241 75.1889 139.383 75.4388C139.196 75.4934 139.002 75.386 138.948 75.2003C138.893 75.0138 139.001 74.8193 139.186 74.7647C140.32 74.4347 141.57 74.8721 142.372 75.8797C142.492 76.0311 142.468 76.2519 142.316 76.3734C142.251 76.4235 142.174 76.449 142.097 76.449Z" fill="#003447"/>
<path d="M149.158 81.8912C149.282 81.099 148.952 80.3891 148.421 80.3057C147.889 80.2222 147.357 80.7968 147.233 81.589C147.109 82.3812 147.439 83.0911 147.97 83.1745C148.502 83.258 149.033 82.6834 149.158 81.8912Z" fill="#003447"/>
<path d="M147.549 78.8026C148.533 78.4831 149.652 78.8422 150.39 79.7125L147.549 78.8026Z" fill="white"/>
<path d="M150.39 80.0643C150.29 80.0643 150.192 80.022 150.122 79.9402C149.475 79.1763 148.506 78.8613 147.657 79.1368C147.472 79.1975 147.275 79.0954 147.216 78.9115C147.156 78.7267 147.256 78.5287 147.441 78.4688C148.563 78.1045 149.826 78.504 150.658 79.4861C150.783 79.634 150.765 79.8557 150.617 79.9807C150.551 80.037 150.471 80.0643 150.39 80.0643Z" fill="#003447"/>
<path d="M159.179 80.9844C159.179 80.9844 164.061 76.9733 166.465 78.0971C168.869 79.2208 167.072 87.9073 164.034 88.4415C160.996 88.9756 158.73 87.572 158.73 87.572" fill="white"/>
<path d="M162.634 88.917C160.265 88.917 158.627 87.9226 158.546 87.8724C158.381 87.7703 158.331 87.5547 158.433 87.3893C158.535 87.2238 158.752 87.1737 158.916 87.2749C158.938 87.2881 161.116 88.6002 163.975 88.0977C165.514 87.8275 166.792 84.9666 167.137 82.3583C167.406 80.3229 167.085 78.7767 166.318 78.4177C164.508 77.5729 160.714 80.1821 159.403 81.2583C159.254 81.3806 159.032 81.3595 158.909 81.2099C158.786 81.0603 158.808 80.8386 158.957 80.7154C159.163 80.5455 164.039 76.5785 166.615 77.7814C167.698 78.2874 168.153 80.0334 167.834 82.4498C167.451 85.3406 166.045 88.447 164.097 88.7894C163.584 88.8791 163.095 88.917 162.634 88.917Z" fill="#003447"/>
<path d="M164.075 84.6221C164.015 84.6221 163.954 84.6063 163.898 84.5746C163.731 84.4769 163.674 84.2622 163.771 84.0941C164.047 83.6216 164.227 83.0856 164.291 82.5436C164.33 82.2285 164.295 82.0129 164.188 81.9029C164.113 81.8255 163.977 81.785 163.835 81.7973C163.689 81.8105 163.529 81.8721 163.347 81.9865C163.076 82.1555 162.838 82.3843 162.66 82.6474C162.551 82.8076 162.332 82.8498 162.172 82.7407C162.012 82.6316 161.97 82.4133 162.08 82.2532C162.313 81.91 162.623 81.6125 162.976 81.3916C163.254 81.2174 163.515 81.1215 163.774 81.0986C164.122 81.0678 164.47 81.1848 164.693 81.4145C164.959 81.6882 165.056 82.0851 164.99 82.6289C164.914 83.2643 164.703 83.8944 164.38 84.4488C164.314 84.5596 164.196 84.6221 164.075 84.6221Z" fill="#003447"/>
<path d="M143.178 80.6953C142.559 81.6748 141.94 82.6542 141.322 83.6336C140.949 84.2241 140.568 84.8401 140.54 85.5186C140.513 86.1971 140.948 86.9574 141.734 87.1818" fill="white"/>
<path d="M141.733 87.5323C141.702 87.5323 141.669 87.5279 141.637 87.5191C140.644 87.2358 140.157 86.2915 140.189 85.5039C140.221 84.719 140.647 84.0423 141.025 83.4456L142.88 80.5073C142.984 80.3436 143.2 80.2943 143.364 80.3982C143.529 80.502 143.577 80.7185 143.473 80.8822L141.618 83.8205C141.288 84.3423 140.914 84.9346 140.89 85.5321C140.87 86.0319 141.192 86.662 141.829 86.8433C142.016 86.8961 142.124 87.0906 142.07 87.2771C142.027 87.4311 141.886 87.5323 141.733 87.5323Z" fill="#003447"/>
<path d="M144.659 91.8152C144.033 91.8152 143.409 91.6788 142.839 91.4077C142.664 91.3241 142.589 91.1147 142.673 90.9396C142.757 90.7644 142.964 90.6896 143.141 90.7732C143.975 91.1701 144.953 91.2212 145.823 90.9158C146.694 90.6104 147.425 89.9584 147.827 89.1276C147.912 88.9534 148.121 88.8804 148.296 88.9648C148.47 89.0493 148.543 89.2596 148.459 89.4339C147.976 90.43 147.1 91.2115 146.056 91.5784C145.606 91.7368 145.132 91.8152 144.659 91.8152Z" fill="#003447"/>
<path d="M104.383 69.125H28.0161C24.8877 69.125 22.3516 71.6612 22.3516 74.7896V172.503C22.3516 175.631 24.8877 178.168 28.0161 178.168H104.383C107.512 178.168 110.048 175.631 110.048 172.503V74.7896C110.047 71.6612 107.511 69.125 104.383 69.125Z" fill="white"/>
<path d="M104.382 178.518H28.0157C24.699 178.518 22 175.82 22 172.503V74.7891C22 71.4724 24.699 68.7734 28.0157 68.7734H104.383C107.7 68.7734 110.399 71.4715 110.399 74.7891V172.503C110.398 175.82 107.699 178.518 104.382 178.518ZM28.0157 69.4757C25.0862 69.4757 22.7031 71.8587 22.7031 74.7882V172.502C22.7031 175.431 25.087 177.814 28.0157 177.814H104.383C107.312 177.814 109.696 175.431 109.696 172.502V74.7891C109.696 71.8596 107.312 69.4766 104.383 69.4766H28.0157V69.4757Z" fill="#003447"/>
<path d="M103.887 69.125H28.5116C25.1095 69.125 22.3516 71.8829 22.3516 75.285V79.8566H110.047V75.285C110.047 71.8838 107.289 69.125 103.887 69.125Z" fill="#E6F6FC"/>
<path d="M110.047 80.2073H22.3511C22.1575 80.2073 22 80.0498 22 79.8562V75.2846C22 71.6942 24.9207 68.7734 28.5111 68.7734H103.886C107.476 68.7734 110.397 71.6942 110.397 75.2846V79.8562C110.398 80.0506 110.24 80.2073 110.047 80.2073ZM22.7022 79.505H109.696V75.2846C109.696 72.0814 107.09 69.4757 103.887 69.4757H28.5111C25.3079 69.4757 22.7022 72.0814 22.7022 75.2846V79.505Z" fill="#003447"/>
<path d="M30.8469 76.4751C31.7353 76.4751 32.4556 75.7549 32.4556 74.8664C32.4556 73.978 31.7353 73.2578 30.8469 73.2578C29.9585 73.2578 29.2383 73.978 29.2383 74.8664C29.2383 75.7549 29.9585 76.4751 30.8469 76.4751Z" fill="#003447"/>
<path d="M36.1448 76.4751C37.0332 76.4751 37.7534 75.7549 37.7534 74.8664C37.7534 73.978 37.0332 73.2578 36.1448 73.2578C35.2563 73.2578 34.5361 73.978 34.5361 74.8664C34.5361 75.7549 35.2563 76.4751 36.1448 76.4751Z" fill="#003447"/>
<path d="M41.4426 76.4751C42.3311 76.4751 43.0513 75.7549 43.0513 74.8664C43.0513 73.978 42.3311 73.2578 41.4426 73.2578C40.5542 73.2578 39.834 73.978 39.834 74.8664C39.834 75.7549 40.5542 76.4751 41.4426 76.4751Z" fill="#003447"/>
<path d="M64.5198 125.743C74.6682 125.743 82.8951 117.516 82.8951 107.367C82.8951 97.2191 74.6682 88.9922 64.5198 88.9922C54.3714 88.9922 46.1445 97.2191 46.1445 107.367C46.1445 117.516 54.3714 125.743 64.5198 125.743Z" fill="#3DCCFF"/>
<path d="M64.5194 105.455C66.8498 105.455 68.739 103.566 68.739 101.235C68.739 98.9048 66.8498 97.0156 64.5194 97.0156C62.189 97.0156 60.2998 98.9048 60.2998 101.235C60.2998 103.566 62.189 105.455 64.5194 105.455Z" fill="white"/>
<path d="M70.9219 116.993C72.9494 116.993 74.2782 114.885 73.4228 113.048C71.8626 109.693 68.4631 107.367 64.519 107.367C60.5748 107.367 57.1763 109.693 55.6151 113.048C54.7598 114.886 56.0895 116.993 58.1161 116.993H70.9219Z" fill="white"/>
<path d="M89.7319 132H42.6677C40.5232 132 38.7852 133.738 38.7852 135.883V140.231C38.7852 142.375 40.524 144.113 42.6677 144.113H89.731C91.8755 144.113 93.6136 142.375 93.6136 140.231V135.883C93.6144 133.738 91.8764 132 89.7319 132Z" fill="white"/>
<path d="M89.7314 144.464H42.6673C40.3326 144.464 38.4336 142.565 38.4336 140.23V135.882C38.4336 133.547 40.3326 131.648 42.6673 131.648H89.7306C92.0652 131.648 93.9651 133.547 93.9651 135.882V140.23C93.9651 142.565 92.0661 144.464 89.7314 144.464ZM42.6673 132.351C40.7198 132.351 39.1358 133.935 39.1358 135.882V140.23C39.1358 142.178 40.7198 143.762 42.6673 143.762H89.7306C91.678 143.762 93.2629 142.178 93.2629 140.23V135.882C93.2629 133.935 91.6789 132.351 89.7306 132.351H42.6673Z" fill="#003447"/>
<path d="M75.336 137.495C75.7901 138.286 75.5234 139.293 74.7323 139.747C73.9456 140.201 72.9389 139.934 72.4848 139.143C72.0307 138.356 72.2974 137.35 73.0885 136.896C73.8752 136.436 74.881 136.708 75.336 137.495Z" fill="#003447"/>
<path d="M67.8586 137.495C68.3127 138.286 68.0461 139.293 67.2549 139.747C66.4682 140.201 65.4615 139.934 65.0074 139.143C64.5489 138.356 64.82 137.35 65.6067 136.896C66.3978 136.436 67.4045 136.708 67.8586 137.495Z" fill="#003447"/>
<path d="M82.2133 139.746C81.4222 140.2 80.4154 139.934 79.9614 139.143C79.5073 138.356 79.7739 137.349 80.565 136.895C81.3518 136.437 82.3585 136.708 82.8126 137.494C83.2719 138.286 83 139.292 82.2133 139.746Z" fill="#003447"/>
<path d="M52.9037 137.495C53.3578 138.286 53.0859 139.293 52.3 139.747C51.5133 140.201 50.5066 139.934 50.0481 139.143C49.594 138.356 49.8659 137.35 50.6518 136.896C51.4385 136.436 52.4496 136.708 52.9037 137.495Z" fill="#003447"/>
<path d="M60.3814 137.495C60.8355 138.286 60.5689 139.293 59.7778 139.747C58.991 140.201 57.9843 139.934 57.5258 139.143C57.0718 138.356 57.3428 137.35 58.1295 136.896C58.9206 136.436 59.9274 136.708 60.3814 137.495Z" fill="#003447"/>
<path d="M158.729 121.562L148.199 141.808L116.16 138.745C116.155 138.745 116.155 138.745 116.155 138.745C113.566 137.645 109.979 137.759 108.162 137.103C104.055 135.624 97.319 133.765 93.5104 132.738C92.0399 132.342 90.5527 133.302 90.3019 134.804C90.1268 135.852 90.6134 136.9 91.5278 137.443L97.4229 140.946C94.0146 141.995 95.2739 145.591 95.2739 145.591C92.9472 146.883 94.459 150.048 94.459 150.048C93.4013 150.563 93.1901 151.523 93.3027 152.464C93.4761 153.934 94.4872 155.179 95.8494 155.76L104.352 159.398C104.568 159.491 104.788 159.534 105.008 159.534C105.72 159.534 106.389 159.07 106.604 158.339C106.814 157.637 106.543 156.883 105.934 156.481L105.742 156.35L151.34 166.435C156.752 167.512 162.208 164.81 164.633 159.857L178.216 132.083L158.729 121.562Z" fill="white"/>
<path d="M153.712 167.018C152.904 167.018 152.088 166.94 151.273 166.777L106.809 156.943C107.039 157.392 107.095 157.924 106.941 158.438C106.691 159.288 105.895 159.882 105.008 159.882C104.732 159.882 104.464 159.827 104.213 159.718L95.7117 156.081C94.1946 155.434 93.1377 154.063 92.9538 152.502C92.813 151.326 93.1782 150.431 94.0107 149.895C93.5249 148.667 93.2222 146.54 94.8617 145.43C94.7173 144.867 94.4859 143.543 95.0799 142.367C95.4055 141.722 95.9238 141.224 96.6269 140.88L91.3478 137.743C90.3015 137.121 89.755 135.944 89.9548 134.744C90.0912 133.929 90.5673 133.206 91.2607 132.761C91.9533 132.316 92.806 132.183 93.6015 132.398C100.278 134.198 105.217 135.669 108.281 136.772C109.018 137.037 110.116 137.177 111.276 137.326C112.894 137.532 114.724 137.766 116.247 138.402L147.996 141.435L158.416 121.4C158.459 121.316 158.535 121.254 158.624 121.226C158.714 121.199 158.811 121.208 158.894 121.253L178.381 131.773C178.547 131.863 178.612 132.067 178.529 132.236L164.947 160.01C162.822 164.353 158.413 167.017 153.712 167.018ZM105.743 155.996C105.768 155.996 105.793 155.999 105.819 156.004L151.417 166.089C156.655 167.131 161.965 164.505 164.317 159.699L177.752 132.228L158.876 122.038L148.511 141.966C148.445 142.093 148.309 142.167 148.166 142.154L116.127 139.091C116.091 139.088 116.051 139.079 116.019 139.065C114.576 138.452 112.777 138.223 111.189 138.02C109.989 137.867 108.855 137.722 108.044 137.43C104.998 136.333 100.078 134.867 93.4202 133.073C92.8077 132.908 92.175 133.006 91.6426 133.348C91.1146 133.687 90.7529 134.237 90.65 134.857C90.4969 135.769 90.9131 136.664 91.7077 137.137L97.6029 140.64C97.7225 140.711 97.7885 140.846 97.7727 140.983C97.756 141.121 97.6601 141.237 97.5272 141.277C96.6569 141.545 96.0461 142.016 95.7109 142.676C95.0817 143.918 95.6017 145.455 95.607 145.47C95.6625 145.631 95.5947 145.81 95.446 145.893C93.4369 147.008 94.7226 149.774 94.7772 149.892C94.8599 150.067 94.7869 150.275 94.6144 150.359C93.847 150.733 93.532 151.406 93.6534 152.417C93.8074 153.728 94.7024 154.884 95.9889 155.432L104.492 159.07C104.657 159.141 104.83 159.177 105.01 159.177C105.588 159.177 106.105 158.79 106.269 158.235C106.436 157.676 106.225 157.087 105.742 156.769L105.546 156.635C105.407 156.54 105.355 156.36 105.422 156.206C105.477 156.077 105.606 155.996 105.743 155.996Z" fill="#003447"/>
<path d="M148.2 142.156C148.021 142.156 147.868 142.019 147.851 141.836C147.833 141.643 147.976 141.473 148.17 141.455L154.514 140.884C154.712 140.867 154.879 141.009 154.895 141.203C154.913 141.396 154.771 141.566 154.577 141.584L148.232 142.155C148.222 142.156 148.211 142.156 148.2 142.156Z" fill="#003447"/>
<path d="M105.743 156.699C105.698 156.699 105.652 156.691 105.607 156.672L100.176 154.402C99.9965 154.327 99.9129 154.121 99.9868 153.942C100.063 153.763 100.268 153.679 100.446 153.754L105.878 156.024C106.057 156.099 106.141 156.305 106.067 156.484C106.01 156.618 105.88 156.699 105.743 156.699Z" fill="#003447"/>
<path d="M98.4553 147.053C98.4166 147.053 98.3779 147.047 98.3392 147.033L95.158 145.918C94.9749 145.854 94.879 145.653 94.9424 145.47C95.0066 145.287 95.2064 145.19 95.3903 145.254L98.5715 146.369C98.7545 146.433 98.8504 146.634 98.7871 146.817C98.736 146.962 98.5996 147.053 98.4553 147.053Z" fill="#003447"/>
<path d="M96.9904 151.011C96.9631 151.011 96.935 151.007 96.9068 151.001L94.3742 150.388C94.1858 150.342 94.0697 150.152 94.1154 149.964C94.1612 149.775 94.3513 149.66 94.5396 149.705L97.0722 150.318C97.2606 150.364 97.3767 150.554 97.331 150.743C97.2922 150.903 97.1488 151.011 96.9904 151.011Z" fill="#003447"/>
<path d="M101.113 142.381C101.08 142.381 101.047 142.376 101.013 142.367L97.3242 141.282C97.1385 141.227 97.032 141.032 97.0866 140.846C97.1411 140.66 97.3338 140.553 97.523 140.608L101.212 141.693C101.398 141.748 101.504 141.943 101.45 142.129C101.405 142.281 101.265 142.381 101.113 142.381Z" fill="#003447"/>
<path d="M183.797 122.345C183.797 123.843 183.559 125.36 183.062 126.835L178.216 142.121L175.309 140.595L165.453 135.412L153.237 128.993L164.01 108.411L169.226 108.242C172.377 108.139 175.471 109.094 178.019 110.958C181.723 113.669 183.797 117.934 183.797 122.345Z" fill="#32A2CA"/>
<g opacity="0.4">
<path d="M177.481 135.96C177.481 137.824 176.638 139.491 175.308 140.601L165.452 135.417C165.724 132.342 168.303 129.93 171.45 129.93C174.784 129.93 177.481 132.631 177.481 135.96Z" fill="white"/>
</g>
<path d="M178.213 142.472C178.157 142.472 178.1 142.459 178.05 142.432L153.076 129.304C152.904 129.214 152.838 129.002 152.928 128.83L160.781 113.829C160.871 113.657 161.082 113.59 161.254 113.681C161.426 113.771 161.493 113.983 161.402 114.155L153.712 128.846L178.005 141.617L182.596 127.255C182.656 127.07 182.852 126.968 183.038 127.027C183.223 127.086 183.325 127.284 183.266 127.469L178.547 142.229C178.516 142.328 178.442 142.408 178.346 142.447C178.303 142.463 178.259 142.472 178.213 142.472Z" fill="#003447"/>
<path d="M112.609 67.2445C112.609 67.2445 105.353 62.1062 101.743 51.3411C99.2388 43.8726 97.851 35.0717 98.0693 28.653C106.603 28.2033 116.383 25.4049 121.965 23.5859C126.263 27.5873 133.958 34.2427 141.51 38.2432C138.958 44.3663 134.134 51.8586 129.017 57.4827C122.762 64.3572 112.609 67.2445 112.609 67.2445Z" fill="#32A2CA"/>
<path d="M118.097 52.1569C122.843 52.1569 126.691 48.3092 126.691 43.5628C126.691 38.8165 122.843 34.9688 118.097 34.9688C113.351 34.9688 109.503 38.8165 109.503 43.5628C109.503 48.3092 113.351 52.1569 118.097 52.1569Z" fill="white"/>
<path d="M114.064 43.326L115.868 46.1499L122.553 41.8828" fill="white"/>
<path d="M115.583 47.4429L113.276 43.8297L114.854 42.8221L116.153 44.8566L122.049 41.0938L123.058 42.6725L115.583 47.4429Z" fill="#003447"/>
<path d="M188.384 164.226L185.876 166.053C184.698 166.903 183.057 166.645 182.205 165.476L180.377 162.968C179.525 161.799 179.783 160.158 180.952 159.307L183.462 157.471C184.631 156.619 186.272 156.877 187.132 158.047L188.958 160.564C189.811 161.733 189.553 163.374 188.384 164.226Z" fill="#3DCCFF"/>
<path d="M185.76 103.051L184.862 104.614C184.439 105.343 183.507 105.595 182.778 105.177L181.215 104.278C180.487 103.86 180.235 102.928 180.654 102.2L181.55 100.632C181.969 99.9031 182.9 99.6514 183.634 100.069L185.199 100.971C185.927 101.391 186.178 102.322 185.76 103.051Z" fill="#3DCCFF"/>
<path d="M73.3883 59.1915L72.4898 60.7544C72.0666 61.4839 71.1346 61.7356 70.406 61.3176L68.8431 60.4191C68.1145 60.0002 67.8628 59.0683 68.2817 58.3405L69.1784 56.7724C69.5973 56.0437 70.5283 55.7921 71.2622 56.2092L72.8269 57.1121C73.5555 57.5309 73.8072 58.4629 73.3883 59.1915Z" fill="#3DCCFF"/>
<path d="M150.187 49.8321L149.289 51.395C148.865 52.1245 147.933 52.3762 147.205 51.9582L145.642 51.0597C144.913 50.6408 144.662 49.7089 145.081 48.9812L145.977 47.413C146.396 46.6844 147.327 46.4327 148.061 46.8498L149.626 47.7527C150.354 48.1716 150.606 49.1035 150.187 49.8321Z" fill="#3DCCFF"/>
<g opacity="0.4">
<path d="M172.172 119.81C172.95 119.81 173.58 119.179 173.58 118.401C173.58 117.623 172.95 116.992 172.172 116.992C171.393 116.992 170.763 117.623 170.763 118.401C170.763 119.179 171.393 119.81 172.172 119.81Z" fill="white"/>
</g>
<g opacity="0.4">
<path d="M160.55 126.194C161.555 126.194 162.37 125.38 162.37 124.375C162.37 123.369 161.555 122.555 160.55 122.555C159.545 122.555 158.73 123.369 158.73 124.375C158.73 125.38 159.545 126.194 160.55 126.194Z" fill="white"/>
</g>
<g opacity="0.4">
<path d="M137.881 121.674C138.656 121.674 139.285 121.046 139.285 120.271C139.285 119.496 138.656 118.867 137.881 118.867C137.106 118.867 136.478 119.496 136.478 120.271C136.478 121.046 137.106 121.674 137.881 121.674Z" fill="white"/>
</g>
<g opacity="0.4">
<path d="M143.713 133.675C144.736 133.675 145.566 132.846 145.566 131.822C145.566 130.798 144.736 129.969 143.713 129.969C142.689 129.969 141.859 130.798 141.859 131.822C141.859 132.846 142.689 133.675 143.713 133.675Z" fill="white"/>
</g>
<g opacity="0.4">
<path d="M131.702 135.048C133.104 135.048 134.241 133.911 134.241 132.508C134.241 131.106 133.104 129.969 131.702 129.969C130.299 129.969 129.162 131.106 129.162 132.508C129.162 133.911 130.299 135.048 131.702 135.048Z" fill="white"/>
</g>
<g opacity="0.4">
<path d="M118.989 117.901C119.775 117.901 120.412 117.264 120.412 116.478C120.412 115.692 119.775 115.055 118.989 115.055C118.203 115.055 117.566 115.692 117.566 116.478C117.566 117.264 118.203 117.901 118.989 117.901Z" fill="white"/>
</g>
<g opacity="0.4">
<path d="M120.199 128.003C120.978 128.003 121.61 127.371 121.61 126.591C121.61 125.812 120.978 125.18 120.199 125.18C119.419 125.18 118.787 125.812 118.787 126.591C118.787 127.371 119.419 128.003 120.199 128.003Z" fill="white"/>
</g>
<g opacity="0.4">
<path d="M122.348 166.864C123.404 166.864 124.26 166.007 124.26 164.951C124.26 163.895 123.404 163.039 122.348 163.039C121.292 163.039 120.436 163.895 120.436 164.951C120.436 166.007 121.292 166.864 122.348 166.864Z" fill="white"/>
</g>
<g opacity="0.4">
<path d="M133.614 168.77C134.67 168.77 135.527 167.914 135.527 166.858C135.527 165.801 134.67 164.945 133.614 164.945C132.558 164.945 131.702 165.801 131.702 166.858C131.702 167.914 132.558 168.77 133.614 168.77Z" fill="white"/>
</g>
<g opacity="0.4">
<path d="M143.746 153.514C145.264 153.514 146.495 152.283 146.495 150.765C146.495 149.246 145.264 148.016 143.746 148.016C142.228 148.016 140.997 149.246 140.997 150.765C140.997 152.283 142.228 153.514 143.746 153.514Z" fill="white"/>
</g>
<g opacity="0.4">
<path d="M132.179 116.303C133.318 116.303 134.241 115.38 134.241 114.242C134.241 113.103 133.318 112.18 132.179 112.18C131.04 112.18 130.117 113.103 130.117 114.242C130.117 115.38 131.04 116.303 132.179 116.303Z" fill="white"/>
</g>
</svg>
